<svg aria-hidden="true" style="position: absolute; width: 0; height: 0; overflow: hidden;" version="1.1" xmlns="http://www.w3.org/2000/svg" xmlns:xlink="http://www.w3.org/1999/xlink">
<defs>
<symbol id="logo-aru" viewBox="0 0 16 32">
<path d="M10.304 20.736h0.896l0.384-0.64 0.448-0.384 0.448-0.512-0.448 0.064-0.384-0.128-0.384 0.192-0.384 0.256-1.152 0.128-0.576 0.384-0.32-0.128-0.384-0.128v0.896l0.256 0.256 0.512 0.128 0.256 0.576 0.64 0.32v-0.832z"></path>
<path d="M5.12 12.416l0.576 0.512 0.192 0.448 0.256 1.024 0.192 0.512 0.064 0.576 0.192 0.448 0.064 0.448 0.192 0.448 0.128 0.448 0.512 0.192v-0.512l0.064-0.576v-1.088l0.064-0.448-0.064-0.512 0.064-0.448-0.064-0.512v-0.448l0.064-0.448 0.576-0.448 0.256 0.32v1.6l0.064 0.512v1.6l0.064 0.512-0.064 0.512 0.64-0.32 0.128-0.896 0.128-0.512 0.192-0.896-0.384-0.128 0.576-0.384 0.128-0.576 0.256-0.512 0.384-0.32-0.128-0.384-0.128-0.448-0.192-0.256-1.152 0.256-0.128-0.064v-0.384l0.064-0.448 0.256-0.384 0.128-0.384 0.448-0.512v-1.216l-0.256-0.704v-0.64l-0.32-0.576-0.32-0.192-0.192 0.576-0.064 0.576-0.32 0.384-0.256 0.32-0.576-0.448-0.128-0.64-0.128-0.576-0.512 0.32-0.256 0.576-0.192 0.64-0.256 0.32-0.192 0.448-0.128 0.896 0.384 0.256 0.32 0.192 0.384 0.768 0.064 0.448v0.384l-0.128 0.064-1.152-0.256-0.256 0.192-0.064 0.384z"></path>
<path d="M6.592 27.008l-0.064 0.448-0.256 0.32-0.192 0.32h-1.024v-0.448l0.576-0.384-0.128-0.64-0.064-0.576-0.512-0.32-0.448-0.384 0.192 0.448 0.128 0.512-0.064 0.448-0.64 0.448-0.064 0.448-0.128 0.448v1.024l0.576 0.064 0.512 0.064 0.512-0.064h0.448l0.512-0.128 0.384-0.448 0.384-0.384 0.064-0.512 0.128-0.512v-2.304l-0.064-0.192 0.064-0.64-0.384-0.448-0.192-0.448-0.064 0.704v0.384l-0.064 0.384 0.064 0.576-0.064 0.64 0.064 0.192-0.128 0.448z"></path>
<path d="M6.912 4.096l0.128 0.256 0.256 0.192 0.32 0.064 0.256-0.064 0.32 0.064 0.32-0.064 0.448-0.448 0.064-0.256 0.064-0.32v-0.32l-0.064-0.32-0.064-0.256-0.064-0.128-0.512-0.192 0.128-0.384 0.064-0.384-0.192-0.32-0.128-0.32-0.128-0.256-0.064-0.32-0.192-0.32-0.128 0.32-0.128 0.256-0.128 0.32-0.128 0.256-0.128 0.32-0.128 0.256-0.064 0.256-0.128 0.32-0.064 0.32-0.064 0.256-0.064 0.32v0.64z"></path>
<path d="M10.496 4.48l0.256 0.384 0.32 0.384 0.32 0.32 0.384 0.256 0.64 0.64 0.256 0.512-0.768 0.512-1.28 0.64-0.064 0.384v1.024h0.576l0.512 0.064-0.256 0.64-0.384 0.576 0.064 0.448 0.256 0.576 0.256 0.512-0.192 0.512-0.192 0.448 0.384-0.192 0.256-0.32 0.32-0.256 0.064-0.704-0.064-0.384-0.064-0.448 0.32-0.384 0.384-0.128 0.448-0.128 0.384-0.192 0.32-0.384 0.32-0.32 0.256-0.384 0.32-0.448 0.256-0.512 0.32-0.448-0.64-0.768-0.256-0.32-0.256-0.384-0.32-0.384-0.384-0.256-0.896-0.512-0.384-0.256-0.448-0.384-0.512-0.32-0.32-0.448-0.384-0.448-0.256-0.576-0.064 0.256-0.064 0.576v0.64z"></path>
<path d="M5.376 21.184v0 0z"></path>
<path d="M12.672 28.608v-0.576l-0.064-0.64-0.064-0.128-1.728-0.384-0.576 0.128-0.128 0.256 0.128 0.896v1.024l-0.128 0.512-0.192 0.448 0.448-0.192 0.32-0.256 0.384-0.576-0.064-0.512v-0.704l0.128 0.064 0.512 0.192 0.128 0.704v1.28l-0.064 0.704-0.512-0.064-0.576-0.064-0.576-0.128-0.576-0.064-0.064-0.128 0.064-0.448v-0.448l0.064-0.384v-0.512l-0.128-0.512 0.192-1.344-0.064-0.448 0.128-0.448v-2.56l-0.256-0.384-0.704-0.704-0.384-0.32-0.384-0.384-0.512-0.64-0.064-0.384v-0.512l-0.128-0.512-0.128-0.384-0.192-0.384-0.32-0.384v0.64l-0.128 1.152-0.128 0.448-0.064 0.448 0.32 0.256 0.192 0.32 0.768 0.768 0.32 0.448 0.384 0.32 0.256 0.384 0.064 0.448-0.064 0.448v0.512l0.064 0.448-0.064 0.576-0.128 0.576v0.576l-0.064 0.512-0.064 0.576 0.128 0.32 0.128 0.384-0.064 0.64-0.064 0.576-0.064 0.512v0.512l-0.064 0.512 0.256 0.192h1.28l0.576 0.064h0.512l0.576 0.064 1.152-0.128v-0.64l0.064-0.64v-1.344z"></path>
<path d="M14.528 15.68v-1.088l0.064-0.512 0.064-0.448 0.128-0.448 0.064-0.512 0.064-0.448-0.384 0.448-0.384 0.384-0.384 0.448-0.064 0.448-0.128 0.448-0.064 0.512h-0.448l-0.448 0.128-0.448 0.256-0.384 0.192-0.128 0.512-0.064 0.576-0.192 0.576-0.32 0.256-0.384 0.256-0.192 0.448-0.192 0.384-0.256 0.384 0.896-0.384 0.448-0.256 0.448-0.128 0.512-0.064 0.192-0.512 0.128-0.576 0.192-0.576 0.512-0.128 0.576-0.256z"></path>
<path d="M15.424 31.36l-0.64-0.064-0.384-0.448-0.384-0.064-0.384-0.128-0.064 0.448 0.064 0.448 0.384 0.256 0.384 0.128 0.704 0.064 0.448-0.256 0.384-0.128z"></path>
<path d="M4.48 20.608l0.512 0.256 0.384 0.32-0.128-0.512-0.064-0.576-0.384-0.256-0.768-0.384-0.064-0.704-0.256-0.512-0.768-0.512-0.384-0.192-0.32-0.256 0.256 0.448 0.128 0.512 0.256 0.448 0.128 0.448 0.128 1.024 0.448 0.064 0.448 0.192z"></path>
<path d="M7.68 29.184l-0.32 0.448-0.384 0.384-0.256 0.32-0.128 0.384h-0.448l-0.448-0.064h-0.448l-1.024-0.256-0.448-0.192-0.576 0.064-0.448 0.32-0.384 0.32-0.512 0.192-0.32 0.256-0.448 0.128-0.448 0.256 0.512-0.064 0.448 0.064h0.448l0.448-0.064 0.384-0.128 0.576-0.256 0.512 0.128 0.576 0.192h0.448l1.024 0.128 1.344-0.192 0.192-0.064v-0.448l0.128-0.896-0.064-0.512z"></path>
<path d="M1.024 12.416l0.064 0.64 0.192 0.64v1.856l0.576 0.128 0.512 0.064 0.576 0.192 0.512 0.064 0.32 0.384 0.384 0.32 0.64 0.896 0.256 0.448 0.64 0.896-0.064-0.448-0.064-0.512-0.064-0.448-0.064-0.512-0.256-0.384-0.384-0.896-0.192-0.384-0.512-0.256-0.448-0.256-0.512-0.256-0.512-0.192-0.064-0.512-0.064-0.448-0.128-0.512-0.064-0.448-0.64-0.896-0.32-0.512-0.896-0.256-0.448-0.192 0.32 0.448 0.192 0.448 0.256 0.448z"></path>
<path d="M0.64 7.36l1.024 1.792 0.64 0.768 0.384 0.256 0.384 0.32v0.64l0.064 0.576 0.256 0.448 0.256 0.512 0.32 0.384 0.448 0.128h0.448l-0.256-0.32-0.256-0.384 0.064-0.512 0.064-0.448 0.128-0.704-0.384-0.576-0.192-0.64 0.448-0.064h0.576v-0.256l0.064-0.768-0.192-0.64-0.128-0.192-0.576-0.32-0.384-0.192-0.32-0.256-0.384-0.256-0.448-0.256 0.384-0.512 0.768-1.152 0.32-0.32 0.384-0.448 0.384-0.512 0.128-0.384 0.128-0.896v-1.088l-0.192 0.064-0.384 0.896-0.256 0.384-0.32 0.384-0.32 0.256-0.64 0.64-0.448 0.256-0.768 0.512-0.384 0.32-0.448 0.256-0.256 0.32-0.192 0.384-0.256 0.384-0.32 0.384 0.32 0.448z"></path>
</symbol>
<symbol id="logo-aru-1" viewBox="0 0 16 32">
<path d="M10.304 20.736h0.896l0.384-0.64 0.448-0.384 0.448-0.512-0.448 0.064-0.384-0.128-0.384 0.192-0.384 0.256-1.152 0.128-0.576 0.384-0.32-0.128-0.384-0.128v0.896l0.256 0.256 0.512 0.128 0.256 0.576 0.64 0.32v-0.832z"></path>
<path d="M5.12 12.416l0.576 0.512 0.192 0.448 0.256 1.024 0.192 0.512 0.064 0.576 0.192 0.448 0.064 0.448 0.192 0.448 0.128 0.448 0.512 0.192v-0.512l0.064-0.576v-1.088l0.064-0.448-0.064-0.512 0.064-0.448-0.064-0.512v-0.448l0.064-0.448 0.576-0.448 0.256 0.32v1.6l0.064 0.512v1.6l0.064 0.512-0.064 0.512 0.64-0.32 0.128-0.896 0.128-0.512 0.192-0.896-0.384-0.128 0.576-0.384 0.128-0.576 0.256-0.512 0.384-0.32-0.128-0.384-0.128-0.448-0.192-0.256-1.152 0.256-0.128-0.064v-0.384l0.064-0.448 0.256-0.384 0.128-0.384 0.448-0.512v-1.216l-0.256-0.704v-0.64l-0.32-0.576-0.32-0.192-0.192 0.576-0.064 0.576-0.32 0.384-0.256 0.32-0.576-0.448-0.128-0.64-0.128-0.576-0.512 0.32-0.256 0.576-0.192 0.64-0.256 0.32-0.192 0.448-0.128 0.896 0.384 0.256 0.32 0.192 0.384 0.768 0.064 0.448v0.384l-0.128 0.064-1.152-0.256-0.256 0.192-0.064 0.384z"></path>
<path d="M6.592 27.008l-0.064 0.448-0.256 0.32-0.192 0.32h-1.024v-0.448l0.576-0.384-0.128-0.64-0.064-0.576-0.512-0.32-0.448-0.384 0.192 0.448 0.128 0.512-0.064 0.448-0.64 0.448-0.064 0.448-0.128 0.448v1.024l0.576 0.064 0.512 0.064 0.512-0.064h0.448l0.512-0.128 0.384-0.448 0.384-0.384 0.064-0.512 0.128-0.512v-2.304l-0.064-0.192 0.064-0.64-0.384-0.448-0.192-0.448-0.064 0.704v0.384l-0.064 0.384 0.064 0.576-0.064 0.64 0.064 0.192-0.128 0.448z"></path>
<path d="M6.912 4.096l0.128 0.256 0.256 0.192 0.32 0.064 0.256-0.064 0.32 0.064 0.32-0.064 0.448-0.448 0.064-0.256 0.064-0.32v-0.32l-0.064-0.32-0.064-0.256-0.064-0.128-0.512-0.192 0.128-0.384 0.064-0.384-0.192-0.32-0.128-0.32-0.128-0.256-0.064-0.32-0.192-0.32-0.128 0.32-0.128 0.256-0.128 0.32-0.128 0.256-0.128 0.32-0.128 0.256-0.064 0.256-0.128 0.32-0.064 0.32-0.064 0.256-0.064 0.32v0.64z"></path>
<path d="M10.496 4.48l0.256 0.384 0.32 0.384 0.32 0.32 0.384 0.256 0.64 0.64 0.256 0.512-0.768 0.512-1.28 0.64-0.064 0.384v1.024h0.576l0.512 0.064-0.256 0.64-0.384 0.576 0.064 0.448 0.256 0.576 0.256 0.512-0.192 0.512-0.192 0.448 0.384-0.192 0.256-0.32 0.32-0.256 0.064-0.704-0.064-0.384-0.064-0.448 0.32-0.384 0.384-0.128 0.448-0.128 0.384-0.192 0.32-0.384 0.32-0.32 0.256-0.384 0.32-0.448 0.256-0.512 0.32-0.448-0.64-0.768-0.256-0.32-0.256-0.384-0.32-0.384-0.384-0.256-0.896-0.512-0.384-0.256-0.448-0.384-0.512-0.32-0.32-0.448-0.384-0.448-0.256-0.576-0.064 0.256-0.064 0.576v0.64z"></path>
<path d="M5.376 21.184v0 0z"></path>
<path d="M12.672 28.608v-0.576l-0.064-0.64-0.064-0.128-1.728-0.384-0.576 0.128-0.128 0.256 0.128 0.896v1.024l-0.128 0.512-0.192 0.448 0.448-0.192 0.32-0.256 0.384-0.576-0.064-0.512v-0.704l0.128 0.064 0.512 0.192 0.128 0.704v1.28l-0.064 0.704-0.512-0.064-0.576-0.064-0.576-0.128-0.576-0.064-0.064-0.128 0.064-0.448v-0.448l0.064-0.384v-0.512l-0.128-0.512 0.192-1.344-0.064-0.448 0.128-0.448v-2.56l-0.256-0.384-0.704-0.704-0.384-0.32-0.384-0.384-0.512-0.64-0.064-0.384v-0.512l-0.128-0.512-0.128-0.384-0.192-0.384-0.32-0.384v0.64l-0.128 1.152-0.128 0.448-0.064 0.448 0.32 0.256 0.192 0.32 0.768 0.768 0.32 0.448 0.384 0.32 0.256 0.384 0.064 0.448-0.064 0.448v0.512l0.064 0.448-0.064 0.576-0.128 0.576v0.576l-0.064 0.512-0.064 0.576 0.128 0.32 0.128 0.384-0.064 0.64-0.064 0.576-0.064 0.512v0.512l-0.064 0.512 0.256 0.192h1.28l0.576 0.064h0.512l0.576 0.064 1.152-0.128v-0.64l0.064-0.64v-1.344z"></path>
<path d="M14.528 15.68v-1.088l0.064-0.512 0.064-0.448 0.128-0.448 0.064-0.512 0.064-0.448-0.384 0.448-0.384 0.384-0.384 0.448-0.064 0.448-0.128 0.448-0.064 0.512h-0.448l-0.448 0.128-0.448 0.256-0.384 0.192-0.128 0.512-0.064 0.576-0.192 0.576-0.32 0.256-0.384 0.256-0.192 0.448-0.192 0.384-0.256 0.384 0.896-0.384 0.448-0.256 0.448-0.128 0.512-0.064 0.192-0.512 0.128-0.576 0.192-0.576 0.512-0.128 0.576-0.256z"></path>
<path d="M15.424 31.36l-0.64-0.064-0.384-0.448-0.384-0.064-0.384-0.128-0.064 0.448 0.064 0.448 0.384 0.256 0.384 0.128 0.704 0.064 0.448-0.256 0.384-0.128z"></path>
<path d="M4.48 20.608l0.512 0.256 0.384 0.32-0.128-0.512-0.064-0.576-0.384-0.256-0.768-0.384-0.064-0.704-0.256-0.512-0.768-0.512-0.384-0.192-0.32-0.256 0.256 0.448 0.128 0.512 0.256 0.448 0.128 0.448 0.128 1.024 0.448 0.064 0.448 0.192z"></path>
<path d="M7.68 29.184l-0.32 0.448-0.384 0.384-0.256 0.32-0.128 0.384h-0.448l-0.448-0.064h-0.448l-1.024-0.256-0.448-0.192-0.576 0.064-0.448 0.32-0.384 0.32-0.512 0.192-0.32 0.256-0.448 0.128-0.448 0.256 0.512-0.064 0.448 0.064h0.448l0.448-0.064 0.384-0.128 0.576-0.256 0.512 0.128 0.576 0.192h0.448l1.024 0.128 1.344-0.192 0.192-0.064v-0.448l0.128-0.896-0.064-0.512z"></path>
<path d="M1.024 12.416l0.064 0.64 0.192 0.64v1.856l0.576 0.128 0.512 0.064 0.576 0.192 0.512 0.064 0.32 0.384 0.384 0.32 0.64 0.896 0.256 0.448 0.64 0.896-0.064-0.448-0.064-0.512-0.064-0.448-0.064-0.512-0.256-0.384-0.384-0.896-0.192-0.384-0.512-0.256-0.448-0.256-0.512-0.256-0.512-0.192-0.064-0.512-0.064-0.448-0.128-0.512-0.064-0.448-0.64-0.896-0.32-0.512-0.896-0.256-0.448-0.192 0.32 0.448 0.192 0.448 0.256 0.448z"></path>
<path d="M0.64 7.36l1.024 1.792 0.64 0.768 0.384 0.256 0.384 0.32v0.64l0.064 0.576 0.256 0.448 0.256 0.512 0.32 0.384 0.448 0.128h0.448l-0.256-0.32-0.256-0.384 0.064-0.512 0.064-0.448 0.128-0.704-0.384-0.576-0.192-0.64 0.448-0.064h0.576v-0.256l0.064-0.768-0.192-0.64-0.128-0.192-0.576-0.32-0.384-0.192-0.32-0.256-0.384-0.256-0.448-0.256 0.384-0.512 0.768-1.152 0.32-0.32 0.384-0.448 0.384-0.512 0.128-0.384 0.128-0.896v-1.088l-0.192 0.064-0.384 0.896-0.256 0.384-0.32 0.384-0.32 0.256-0.64 0.64-0.448 0.256-0.768 0.512-0.384 0.32-0.448 0.256-0.256 0.32-0.192 0.384-0.256 0.384-0.32 0.384 0.32 0.448z"></path>
</symbol>
<symbol id="logo-jora" viewBox="0 0 16 32">
<path d="M9.664 0v0l-1.664 1.664-1.664-1.664h-6.336v27.2l7.936 4.8 8.064-4.8v-27.2h-6.336zM3.456 27.072l-1.6-1.024v-11.264l1.6 1.6v10.688zM8.96 24.576l-0.96-0.512-0.96 0.512 0.192-1.088-0.832-0.768 1.088-0.128 0.512-0.96 0.512 0.96 1.088 0.128-0.768 0.768 0.128 1.088zM14.208 26.048l-1.6 1.024v-10.688l1.6-1.6v11.264zM13.184 12.736h-2.56l2.112 0.512-0.576 0.448h-2.56l2.048 0.512-0.448 0.512h-2.368l1.216 1.152-0.832 0.768-0.64-0.512 0.32 0.896-0.896 0.896-0.832-0.832 0.32-0.896-0.768 0.448-0.768-0.768 1.216-1.152h-2.432l-0.448-0.448 2.048-0.512h-2.56l-0.512-0.512 2.112-0.512h-2.56l-1.024-1.024 4.48-0.064 1.792 1.792 1.792-1.792 4.416 0.064-1.088 1.024zM9.216 11.264l-1.216 1.216-1.216-1.216 1.216-1.216 1.216 1.216zM14.272 10.752h-2.368v-0.192c0-0.064 0-0.064 0-0.128s0-0.064 0-0.128c-0.064-2.176-1.856-3.904-4.032-3.84s-3.904 1.856-3.84 4.032c0 0.064 0 0.064 0 0.128v0.192h-2.304v-0.192c0-0.32 0-0.576 0.064-0.896v-0.128l0.128-0.064c0.192-0.064 0.448-0.128 0.768-0.192 0.064-0.32 0.192-0.64 0.32-0.96-0.192-0.192-0.384-0.448-0.512-0.64l-0.064-0.064 0.064-0.128c0.256-0.512 0.576-0.96 0.96-1.344l0.064-0.064h0.128c0.128 0.064 0.384 0.128 0.64 0.256 0.256-0.256 0.512-0.448 0.832-0.64 0-0.32-0.064-0.576-0.064-0.768v-0.128l0.128-0.064c0.256-0.128 0.512-0.256 0.768-0.32s0.512-0.192 0.768-0.192h0.128l0.064 0.064c0.128 0.192 0.32 0.384 0.448 0.64 0.192 0 0.448-0.064 0.64-0.064 0.128 0 0.256 0 0.384 0 0.128-0.256 0.256-0.448 0.448-0.64l0.064-0.064h0.128c0.512 0.064 1.088 0.256 1.536 0.448l0.128 0.064v0.128c0 0.256 0 0.512 0 0.768 0.256 0.128 0.576 0.32 0.832 0.576 0.256-0.128 0.512-0.192 0.704-0.32l0.128-0.064 0.064 0.064c0.384 0.384 0.704 0.832 1.024 1.28l0.064 0.064-0.064 0.192c-0.128 0.192-0.256 0.448-0.448 0.64 0.064 0.192 0.192 0.384 0.256 0.576s0.128 0.384 0.192 0.64c0.256 0.064 0.512 0.128 0.768 0.192l0.128 0.064v0.128c0.064 0.32 0.064 0.64 0.064 0.896v0.192z"></path>
</symbol>
<symbol id="logo-qrath" viewBox="0 0 16 32">
<path d="M9.856 8.768c0.96 1.216 2.112 2.24 3.392 3.136 0.512-1.024-0.128-1.6-1.024-2.432-1.088-0.832-1.92-1.92-2.432-3.2-0.576-1.792-0.704-3.648-0.512-5.504 0.064-0.256 0.064-0.512 0-0.768 0 0 0 0 0 0s-0.064 0.064-0.128 0.192c-0.32 0.512-0.448 2.24-0.384 3.968 0.128 2.112 0.512 3.776 1.088 4.608z"></path>
<path d="M13.184 9.024c1.216 1.216 2.176 2.24 1.152 3.456 0 0 0 0 0 0 0.256 0.192 0.512 0.32 0.832 0.384 0 0 0 0 0 0 0.448-0.384 0.768-0.96 0.832-1.6 0-0.64-0.192-1.216-0.64-1.664-0.832-0.832-1.472-1.408-1.984-1.856-0.896-0.64-1.6-1.536-2.048-2.496-0.448-1.024-0.64-2.176-0.576-3.264 0-0.128 0-0.256 0-0.448 0 0 0 0 0 0s-0.064 0.064-0.192 0.32c-0.448 1.216-0.064 3.136 0.384 4.16 0.576 1.152 1.344 2.176 2.24 3.008z"></path>
<path d="M13.312 11.904v0 0z"></path>
<path d="M2.688 11.904v0 0z"></path>
<path d="M6.144 6.272c-0.512 1.28-1.344 2.368-2.368 3.2-0.896 0.832-1.6 1.408-1.024 2.432 1.28-0.896 2.432-1.984 3.392-3.136 0.576-0.832 0.96-2.496 1.088-4.608 0.064-1.792-0.064-3.456-0.384-3.968-0.064-0.128-0.128-0.192-0.192-0.192 0 0 0 0 0 0-0.064 0.256-0.064 0.512 0 0.768 0.256 1.856 0.064 3.712-0.512 5.504z"></path>
<path d="M11.712 12.544c-1.088-0.768-2.368-1.216-3.712-1.216s-2.624 0.448-3.648 1.216c-1.344 0.896-2.816 1.536-4.352 1.92 0.256 0.32 0.448 0.512 0.576 0.768 0.128 0.128 0.192 0.256 0.32 0.32 0.64-0.064 1.216-0.192 1.856-0.448 0 0.192 0.064 0.384 0.128 0.576-0.064 0.832-0.448 1.6-0.96 2.176 1.024 0.384 1.856 1.152 2.176 2.176 0.32 0.704 0.576 4.288 0.704 6.4 0.064 0.768 0.128 1.344 0.128 1.472 0.192 1.664 1.088 3.136 2.496 4.096v-14.336c-0.384-0.256-0.768-0.512-1.216-0.704-0.896-0.448-1.856-0.96-2.24-2.304 0.256-0.128 0.512-0.256 0.832-0.448 0.128-0.064 0.256-0.128 0.448-0.256 0.32 0.832 0.96 1.536 1.792 1.792 1.536 0.512 3.2-0.256 3.776-1.792 0.128 0.064 0.256 0.128 0.384 0.192 0.32 0.128 0.576 0.32 0.832 0.448-0.384 1.344-1.344 1.856-2.24 2.304-0.448 0.192-0.832 0.448-1.216 0.704v14.4c1.408-0.896 2.304-2.432 2.496-4.096 0-0.128 0.064-0.704 0.128-1.472 0.128-2.112 0.384-5.696 0.704-6.4 0.384-1.024 1.152-1.856 2.176-2.176-0.512-0.64-0.832-1.344-0.96-2.176 0.064-0.192 0.128-0.384 0.128-0.576 0.576 0.256 1.216 0.384 1.856 0.448 0.128-0.128 0.192-0.256 0.32-0.32 0.192-0.192 0.384-0.448 0.576-0.768-1.536-0.448-2.944-1.088-4.288-1.92zM8.32 14.464c-0.896 0.064-1.664-0.448-2.048-1.216 0.64-0.192 1.344-0.32 2.048-0.32s1.408 0.128 2.048 0.32c-0.384 0.768-1.216 1.216-2.048 1.216z"></path>
<path d="M1.472 12.864c0.32-0.064 0.576-0.192 0.832-0.384 0 0 0 0 0 0-1.024-1.216-0.064-2.24 1.152-3.456 0.896-0.832 1.664-1.856 2.24-2.944 0.448-1.024 0.832-2.944 0.384-4.16-0.128-0.256-0.128-0.32-0.192-0.32 0 0 0 0 0 0 0 0.128-0.064 0.256 0 0.448 0.064 1.088-0.128 2.176-0.576 3.2-0.512 0.96-1.216 1.856-2.048 2.496-0.512 0.448-1.152 1.024-1.984 1.856-0.448 0.448-0.704 1.024-0.64 1.664s0.32 1.216 0.832 1.6c0 0 0 0 0 0z"></path>
</symbol>
<symbol id="resource-1" viewBox="0 0 32 32">
<path d="M9.6 11.907l1.712 1.34 1.34 1.637 1.488 1.563 1.637 1.414 1.34-1.563 1.563-1.414 1.488-1.414 1.488-1.488 1.414-1.488 1.414-1.414-1.414-1.488-2.977-3.126-1.563-1.34-1.563-1.563-1.414-1.563-1.563 1.414-1.414 1.563-1.563 1.414-1.488 1.414-1.34 1.637-1.563 1.414 1.563 1.488z"></path>
<path d="M25.823 19.944l-1.34-1.34-1.34-1.265-4.242 4.019-1.34 1.488-1.488 1.34-1.488-1.34-1.265-1.563-1.563-1.414-1.488-1.34-1.414-1.563-2.753 2.753-1.265 1.34 1.637 1.488 1.488 1.712 1.563 0.744 1.786 2.381 1.637 1.637 1.563 1.637 1.563 1.488 3.274-2.977 1.488-1.637 1.637-1.563 1.637-1.488 1.414-1.712 1.637-1.488z"></path>
</symbol>
<symbol id="resource-2" viewBox="0 0 32 32">
<path d="M6.969 0.569l0.924 0.284 1.28 0.284 1.28 0.356 2.418 1.138 1.351 1.138 1.28 1.067 0.996 1.351 1.564 2.844 0.142 1.493v1.422l-0.213 1.493-0.498 1.351-0.782 1.28-0.782 1.209-0.498 0.498-0.427 0.569-0.427 0.996v0.924l0.284 0.569 0.64 0.427 1.067 0.071 0.569-0.142 0.498-0.284 0.711-0.782 0.427-0.782 0.924-1.636 0.569-1.138 0.427-1.209 0.213-1.209 0.071-0.924v-0.996l-0.071-0.996-0.213-0.924-0.569-1.849-0.356-0.924-0.569-0.853-0.498-0.782-0.711-0.711-0.569-0.782-0.711-0.711-2.347-1.707-0.853-0.427-1.138-0.498-1.138-0.356-1.138-0.284-1.138-0.356-1.209-0.071h-1.209l-0.498 0.142 0.213 0.142z"></path>
<path d="M26.524 12.444l-0.356-1.28-0.356-1.209-0.427-1.138-0.427-1.209-0.569-1.067-0.64-1.067-0.711-0.996-0.782-0.996-1.707-1.707-0.569-0.356-0.071 0.284 0.213 0.498 0.64 1.138 0.711 1.067 1.28 2.276 0.498 1.209 0.427 1.209 0.284 1.28 0.071 1.138 0.142 1.138v2.276l-0.213 1.138-0.569 2.133-0.427 1.067-0.498 0.996-0.569 0.924-0.64 0.853-0.782 0.853-0.782 0.711-0.924 0.569-0.924 0.64-0.924 0.569-1.067 0.498-1.067 0.284-1.067 0.356-1.138 0.213-2.276 0.284-1.138-0.071-0.996 0.071h-0.356l-1.422 0.284-0.924 1.138-0.142 0.284v1.209l0.427 1.067 0.924 0.782 1.209 0.213h0.071l1.564-0.142 1.422-0.142 1.422-0.213 1.351-0.427 1.138-0.284 1.067-0.427 1.067-0.498 0.996-0.498 0.996-0.64 1.209-0.782 1.138-0.782 0.996-1.067 0.996-0.996 0.782-1.138 0.64-1.209 0.142-0.924 0.996-1.564 0.356-1.28 0.213-1.351 0.142-1.28 0.071-1.351v-1.28z"></path>
</symbol>
<symbol id="resource-3" viewBox="0 0 32 32">
<path d="M13.824 23.040l-1.92-0.896-1.792-1.024-1.92-0.832-1.792-1.088 0.768 1.728 0.96 1.728 0.832 1.728 0.896 1.664 1.6 0.512 1.6 0.64 1.664 0.32-0.576-2.176z"></path>
<path d="M24.576 16.96l-1.152-1.472-0.96-1.536-0.896-1.664-1.216-1.408-0.256-1.856-0.448-1.792-0.576-1.792-0.256-1.792-0.576-1.792-0.32-1.856-0.832 1.664-0.704 1.6-0.576 1.728-0.64 1.664-0.896 1.536-0.576 1.728-0.64 1.664-0.896 1.6 1.088 1.536 0.768 1.664 0.96 1.536 0.832 1.6 1.024 1.536 0.832 1.6 0.32 1.856 0.256 1.92 0.192 1.92 0.32 1.856 0.32 1.792 0.768-1.6 0.96-1.664 0.704-1.728 0.768-1.728 0.832-1.664 0.896-1.664 0.832-1.664 0.768-1.728z"></path>
</symbol>
<symbol id="structure-icon" viewBox="0 0 31 32">
<path d="M25.719 3.319l-6.874-2.489v5.096z"></path>
<path d="M28.207 24.77c-0.711-3.081-1.067-6.4-0.83-9.6l-11.141-7.822v-7.348h-1.659v7.348l-11.141 7.822c0.237 3.2-0.119 6.4-0.83 9.6-0.593 2.489-1.422 4.978-2.607 7.23h10.311c1.304-1.541 2.37-3.2 3.2-5.096 0.948-2.133 1.659-4.385 1.896-6.756v0c0.356 2.37 0.948 4.622 1.896 6.756 0.83 1.778 1.896 3.556 3.2 5.096h10.311c-1.185-2.252-2.015-4.741-2.607-7.23z"></path>
</symbol>
<symbol id="unit-icon" viewBox="0 0 16 32">
<path d="M14.118 11.576c0.376 0.188 0.659 0.376 1.035 0.659 1.412 1.035 1.694 3.671 1.694 3.859 0.282-5.271-1.224-6.4-2.635-7.435-0.565-0.376-1.035-0.847-1.506-1.412-1.224-1.694-2.165-7.153-2.165-7.247 0 0.094-0.094 5.647 0.753 8.282 0.376 1.412 1.412 2.635 2.824 3.294z"></path>
<path d="M3.106 12.235c0.376-0.282 0.659-0.471 1.035-0.659 1.412-0.659 2.447-1.882 2.824-3.294 0.753-2.353 0.753-7.247 0.753-8.282 0 0 0 0 0 0 0 0.094-0.941 5.459-2.165 7.247-0.376 0.565-0.941 1.035-1.506 1.412-1.412 1.035-2.918 2.165-2.635 7.435 0-0.188 0.282-2.824 1.694-3.859z"></path>
<path d="M5.082 13.741c0.471 0.471 1.035 0.659 1.694 0.753 0.376 0.094 0.753 0.094 1.129 0.282 0.565 0.188 1.035 1.224 1.035 1.318v0c0 0 0.471-1.129 1.035-1.318 0.376-0.094 0.847-0.188 1.224-0.282 0.565 0 1.224-0.282 1.6-0.659-0.941 0-1.882-0.376-2.635-1.035-0.753-0.753-1.976-0.753-2.729 0-0.471 0.565-1.412 0.941-2.353 0.941z"></path>
<path d="M17.035 24.941c0-1.318 0-2.541-0.188-3.859-0.094 0.659-0.094 1.318-0.094 1.976 0 0-0.094 3.388-0.941 3.953-0.282 0.188-0.659 0.282-1.035 0.376-0.282 0.094-0.376 0.094-0.376 0.282-0.094 0.471-0.094 0.941-0.282 1.412-0.188 0.659-0.282 1.318-0.282 1.976 0 0.188 0 0.376 0.094 0.565 0 0 0.094 0.094 0.094 0.094 0.282 0 0.847-0.659 1.224-1.129l0.094-0.188c1.224-1.506 1.788-3.482 1.694-5.459z"></path>
<path d="M3.859 29.176c-0.094-0.471-0.188-0.941-0.282-1.412 0-0.188-0.188-0.188-0.376-0.282-0.376-0.094-0.659-0.188-1.035-0.376-0.941-0.565-0.941-3.953-0.941-3.953 0-0.094 0-1.976-0.094-1.976 0 0-0.094 1.318-0.188 3.765-0.094 1.976 0.471 4.047 1.6 5.647l0.094 0.188c0.471 0.471 0.941 1.129 1.224 1.129 0 0 0.094 0 0.094 0 0.094-0.188 0.094-0.376 0.094-0.565 0.094-0.847 0-1.506-0.188-2.165z"></path>
<path d="M14.682 25.412c0.282-0.094 0.565-3.294 0.565-4.8 0-0.094 0-0.282 0-0.376 0.094-1.788 0.188-3.671-0.753-4.047-0.094-0.094-0.282-0.094-0.471-0.094-0.471 0-0.847 0.188-1.224 0.471-0.753 0.659-1.694 1.129-2.729 1.224-0.188 0-0.376 0-0.565-0.094-0.282-0.094-0.471-0.376-0.565-0.565-0.094 0.282-0.282 0.471-0.565 0.565-0.188 0.094-0.376 0.094-0.565 0.094-1.035-0.188-1.976-0.565-2.729-1.224-0.376-0.282-0.753-0.471-1.224-0.471-0.188 0-0.282 0-0.471 0.094-0.847 0.471-0.847 2.635-0.753 4.424 0 0.282 0 0.565 0 0.847 0 1.506 0.188 3.859 0.565 4.047l0.847 0.471c0.941 0.376 1.035 1.129 1.035 1.129 0.094 0.659 0.282 1.224 0.376 1.788 0.565 2.729 0.565 2.729 1.506 2.918 0.282 0 0.565 0.094 0.941 0.188 0.188 0 0.376 0.094 0.565 0.094v-3.482l-0.376-0.376h-0.847l-0.753 0.376-0.471-0.565 0.847-0.376 1.224-0.847 0.847 0.471 0.847-0.376 1.224 0.847 0.847 0.376-0.471 0.565-0.659-0.471h-0.847l-0.282 0.282v3.482c0 0 0 0 0.094 0 0.188 0 0.282 0 0.471-0.094 0.376-0.094 0.659-0.094 0.847-0.094 1.129-0.094 1.129-0.094 1.6-3.2 0.094-0.471 0.188-0.941 0.282-1.6 0 0 0-0.659 1.035-1.129l0.753-0.471zM7.718 22.118c-0.282-0.188-0.659-0.376-0.847-0.565v0c-0.471 0.282-0.941 0.471-1.412 0.471-0.094 0-0.188 0-0.376 0-0.659-0.188-1.224-0.659-1.694-1.224 0.471-0.282 1.129-0.471 1.694-0.565 0.753 0 1.506 0.376 1.976 0.941s0.659 0.847 0.659 0.941c0 0 0 0 0 0zM13.176 22.024c-0.094 0-0.188 0-0.376 0-0.471 0-1.035-0.188-1.412-0.471-0.282 0.188-0.565 0.376-0.847 0.565 0 0 0 0 0 0 0-0.094 0.188-0.376 0.659-0.941s1.224-0.941 1.976-0.941c0.565 0 1.224 0.188 1.694 0.565-0.376 0.565-1.035 1.035-1.694 1.224z"></path>
</symbol>
<symbol id="scout" viewBox="0 0 31 32">
<path d="M10.655 7.418v0l-10.251-7.418 4.384 6.036z"></path>
<path d="M13.050 5.665v0l-2.394-5.564 0.27 4.653z"></path>
<path d="M0.169 32l10.251-7.418-5.867 1.383z"></path>
<path d="M20.131 4.653l0.708-4.653-2.698 5.665z"></path>
<path d="M31.123 0l-10.217 7.418 5.834-1.383z"></path>
<path d="M18.276 26.301l2.394 5.597-0.27-4.653z"></path>
<path d="M10.487 32l2.664-5.699-1.956 1.045z"></path>
<path d="M20.67 24.582l10.251 7.418-4.417-6.036z"></path>
<path d="M29.201 17.399l0.067-0.067 1.956-0.641-1.787-0.674c-1.012-1.484-2.192-2.832-3.507-4.046-0.371-0.337-0.809-0.708-1.248-1.045l-0.034-0.034-0.135-0.101c-0.641-0.506-1.315-0.944-2.023-1.349-2.259-1.315-4.518-1.956-6.744-1.956-2.293 0.034-4.518 0.674-6.474 1.787l-0.202 0.135-0.067 0.034c-0.708 0.405-1.349 0.843-1.989 1.315l-0.169 0.135-0.034 0.034c-0.438 0.337-0.877 0.708-1.281 1.079-1.349 1.18-2.529 2.563-3.507 4.046l-1.989 0.674 2.192 0.641c0.034 0.034 0.067 0.067 0.135 0.135 1.281 1.281 2.698 2.462 4.181 3.507 2.799 1.956 5.53 3.069 8.093 3.338l1.281 1.855 1.315-1.888c2.495-0.303 5.125-1.416 7.823-3.305 1.45-1.079 2.866-2.293 4.148-3.608zM14.466 9.846l1.416 2.158 1.382-2.124c1.72 0.303 3.338 0.944 4.788 1.855l-2.192 1.686 1.821 1.484c-0.877 1.855-2.529 3.203-4.485 3.743l-1.349-1.956-1.383 1.989c-2.091-0.506-3.844-1.956-4.721-3.945l1.619-1.315-2.091-1.585c1.585-1.012 3.338-1.686 5.193-1.989zM15.713 22.66c-3.203 0-6.272-1.72-8.261-3.136-1.214-0.843-2.36-1.821-3.406-2.866 0.843-1.113 1.787-2.124 2.832-3.035 0.034-0.034 0.067-0.067 0.101-0.067 0.034-0.034 0.067-0.067 0.101-0.067 0.438 1.922 1.45 3.642 2.866 5.024 0.674 0.641 1.484 1.18 2.327 1.619 0.843 0.405 1.72 0.641 2.63 0.742l0.91 1.315 0.944-1.349c1.821-0.236 3.507-1.079 4.822-2.36 1.383-1.349 2.36-3.069 2.799-4.923 0.034 0.034 0.067 0.067 0.101 0.067 0.034 0.034 0.067 0.034 0.067 0.067 1.045 0.91 1.989 1.922 2.832 3.001-1.079 1.045-2.192 1.989-3.406 2.866-1.989 1.416-5.058 3.102-8.261 3.102z"></path>
</symbol>
<symbol id="attack" viewBox="0 0 28 32">
<path d="M8.218 16c0.145 0.145 0.873 0.727 2.036 1.673v0c0.945-0.8 1.891-1.818 2.4-2.4l0.073-0.073c-4.291-5.455-5.455-8.509-5.455-8.582l-7.273-3.491c0.436 1.382 1.018 2.764 1.673 4.073 1.673 3.273 3.927 6.255 6.545 8.8z"></path>
<path d="M2.764 27.636c-1.236 1.236-2.182 2.691-2.764 4.364l6.109-4.582v-6.255c-1.455 1.309-2.545 2.909-3.273 4.727l-0.073 1.745z"></path>
<path d="M13.818 6.109l1.527-3.055h1.527l-3.055-3.055-3.055 3.055h1.527z"></path>
<path d="M20.291 6.691c0 0-1.236 3.345-6.036 9.309-1.964 2.255-4.145 4.291-6.545 6.036v3.855l4.218-2.836 0.655-1.455c0.073-0.073 6.473-5.236 6.836-5.6 2.618-2.618 4.873-5.6 6.545-8.873 0.655-1.309 1.236-2.618 1.673-4 0 0 0 0 0 0l-7.345 3.564z"></path>
<path d="M24.8 25.891c-0.727-1.818-1.818-3.418-3.273-4.727v6.255l6.109 4.582c-0.582-1.6-1.527-3.127-2.764-4.364l-0.073-1.745z"></path>
<path d="M16.582 20.509c-0.582 0.436-1.091 0.8-1.527 1.164l0.655 1.455 4.218 2.836v-3.927c0 0-1.164-0.8-2.618-2.036-0.218 0.145-0.436 0.364-0.727 0.509z"></path>
</symbol>
<symbol id="expand" viewBox="0 0 30 32">
<path d="M27.836 24.767c-1.242-6.283-0.877-9.571-0.877-9.571l-10.959-7.89v-7.306h-1.68v7.306l-10.959 7.817c0 0 0.365 3.361-0.877 9.571-0.584 2.484-1.388 4.968-2.557 7.233h10.082c1.315-1.534 2.338-3.215 3.142-5.041 0.95-2.119 1.607-4.384 1.9-6.721 0.292 2.338 0.95 4.603 1.9 6.721 0.804 1.826 1.826 3.507 3.142 5.041h10.082c-0.95-2.192-1.826-4.676-2.338-7.16zM10.082 21.918h-3.361v-3.361l1.68-1.68 1.68 1.68v3.361z"></path>
<path d="M25.279 3.361l-6.721-2.484v5.041z"></path>
</symbol>
<symbol id="defend" viewBox="0 0 33 32">
<path d="M8.468 22.707l0.525-1.274-3.747-7.494-1.274-0.375c-1.424-3.897-2.023-8.019-1.948-12.14l-2.023 2.998c0.749 17.986 13.34 26.379 13.34 26.379l2.023 1.199-0.375-1.874c0 0-2.848-1.799-6.52-7.419z"></path>
<path d="M30.876 1.424c0.075 4.122-0.525 8.244-1.874 12.14l-1.274 0.375-3.822 7.419 0.525 1.274c-3.672 5.621-6.445 7.419-6.445 7.419l-0.45 1.948 2.023-1.199c0 0 12.59-8.468 13.34-26.379l-2.023-2.998z"></path>
<path d="M19.785 25.18c0.674-0.824 1.349-1.799 2.023-2.848v-0.075l-0.375-0.974 0.45-0.899 3.822-7.419 0.45-0.899 0.824-0.225c0.6-1.799 1.049-3.672 1.424-5.546 0.225-1.574 0.3-3.073 0.225-4.646l-0.075-1.649-10.642 1.124-1.649 3.672-1.799-3.672-10.117-1.049-0.075 1.499c-0.075 3.447 0.45 6.895 1.424 10.192h0.15l0.899 0.3 0.45 0.899 3.822 7.419 0.45 0.899-0.375 0.974-0.075 0.15c2.848 4.122 5.021 5.696 5.171 5.77l0.3 0.15 0.3-0.15c1.124-0.824 2.173-1.874 2.998-2.998z"></path>
</symbol>
</defs>
</svg>
